<svg xmlns="http://www.w3.org/2000/svg" width="32" height="32" viewBox="0 0 32 32" fill="none" aria-label="Pear">
  <defs>
    <radialGradient id="pg" cx="38%" cy="44%" r="62%">
      <stop offset="0%" stop-color="#fff" stop-opacity="0.34"/>
      <stop offset="55%" stop-color="#fff" stop-opacity="0"/>
    </radialGradient>
  </defs>
  <!-- shadow -->
  <ellipse cx="16" cy="30.6" rx="4.6" ry="0.7" fill="rgba(31,27,22,.16)"/>
  <!-- body -->
  <path d="M16 30.0c-4.6 0-7.6-3.6-7.6-7.8 0-3.0 1.2-5.6 3.0-7.5 1.5-1.6 2.8-3.0 3.4-4.7.4-1.1.5-2.3.7-3.0.2-.7.7-1.0 1.4-1.1.2 0 .4 0 .6 0s.4 0 .6 0c.7.1 1.2.4 1.4 1.1.2.7.3 1.9.7 3.0.6 1.7 1.9 3.1 3.4 4.7 1.8 1.9 3.0 4.5 3.0 7.5 0 4.2-3.0 7.8-7.6 7.8z" fill="#296f23"/>
  <!-- highlight overlay -->
  <path d="M16 30.0c-4.6 0-7.6-3.6-7.6-7.8 0-3.0 1.2-5.6 3.0-7.5 1.5-1.6 2.8-3.0 3.4-4.7.4-1.1.5-2.3.7-3.0.2-.7.7-1.0 1.4-1.1.2 0 .4 0 .6 0s.4 0 .6 0c.7.1 1.2.4 1.4 1.1.2.7.3 1.9.7 3.0.6 1.7 1.9 3.1 3.4 4.7 1.8 1.9 3.0 4.5 3.0 7.5 0 4.2-3.0 7.8-7.6 7.8z" fill="url(#pg)"/>
  <!-- inner highlight -->
  <ellipse cx="11.8" cy="20.6" rx="2.4" ry="3.6" fill="rgba(255,255,255,.24)" transform="rotate(-18 11.8 20.6)"/>
  <!-- stem -->
  <path d="M15.8 6.2c.4-1.0 1.2-2.0 2.2-2.6" stroke="#6B4A2B" stroke-width="2.0" stroke-linecap="round" fill="none"/>
  <!-- leaf -->
  <path d="M17.4 4.0c2.6-1.8 5.8-1.6 7.4.2-.8 2.4-3.6 3.8-6.4 3.6-1.2-.1-2.0-2.4-1.0-3.8z" fill="#296f23"/>
  <!-- leaf vein -->
  <path d="M18.2 4.6c1.8.0 4.0-.2 5.8-.8" stroke="rgba(255,255,255,.42)" stroke-width="0.7" stroke-linecap="round" fill="none"/>
</svg>
